<mxfile host="65bd71144e">
    <diagram name="Page-1" id="2YBvvXClWsGukQMizWep">
<<<<<<< HEAD
        <mxGraphModel dx="539" dy="419" grid="1" gridSize="10" guides="1" tooltips="1" connect="1" arrows="1" fold="1" page="1" pageScale="1" pageWidth="850" pageHeight="1100" math="0" shadow="0">
=======
        <mxGraphModel dx="916" dy="762" grid="1" gridSize="10" guides="1" tooltips="1" connect="1" arrows="1" fold="1" page="1" pageScale="1" pageWidth="850" pageHeight="1100" math="0" shadow="0">
>>>>>>> 0894ed2775b1d53241c220fcd7a25aa28018077a
            <root>
                <mxCell id="0"/>
                <mxCell id="1" parent="0"/>
                <mxCell id="aM9ryv3xv72pqoxQDRHE-1" value="user" style="shape=umlLifeline;perimeter=lifelinePerimeter;whiteSpace=wrap;html=1;container=0;dropTarget=0;collapsible=0;recursiveResize=0;outlineConnect=0;portConstraint=eastwest;newEdgeStyle={&quot;edgeStyle&quot;:&quot;elbowEdgeStyle&quot;,&quot;elbow&quot;:&quot;vertical&quot;,&quot;curved&quot;:0,&quot;rounded&quot;:0};" parent="1" vertex="1">
                    <mxGeometry x="40" y="40" width="100" height="1400" as="geometry"/>
                </mxCell>
                <mxCell id="aM9ryv3xv72pqoxQDRHE-5" value="&lt;font style=&quot;vertical-align: inherit;&quot;&gt;&lt;font style=&quot;vertical-align: inherit;&quot;&gt;EmployeeAccount&lt;br&gt;Controller&lt;/font&gt;&lt;/font&gt;" style="shape=umlLifeline;perimeter=lifelinePerimeter;whiteSpace=wrap;html=1;container=0;dropTarget=0;collapsible=0;recursiveResize=0;outlineConnect=0;portConstraint=eastwest;newEdgeStyle={&quot;edgeStyle&quot;:&quot;elbowEdgeStyle&quot;,&quot;elbow&quot;:&quot;vertical&quot;,&quot;curved&quot;:0,&quot;rounded&quot;:0};" parent="1" vertex="1">
                    <mxGeometry x="210" y="40" width="100" height="1320" as="geometry"/>
                </mxCell>
                <mxCell id="aM9ryv3xv72pqoxQDRHE-6" value="" style="html=1;points=[];perimeter=orthogonalPerimeter;outlineConnect=0;targetShapes=umlLifeline;portConstraint=eastwest;newEdgeStyle={&quot;edgeStyle&quot;:&quot;elbowEdgeStyle&quot;,&quot;elbow&quot;:&quot;vertical&quot;,&quot;curved&quot;:0,&quot;rounded&quot;:0};" parent="aM9ryv3xv72pqoxQDRHE-5" vertex="1">
                    <mxGeometry x="45" y="110" width="10" height="360" as="geometry"/>
                </mxCell>
                <mxCell id="igy6CoDfFQRIuPccJzhU-112" value="" style="html=1;points=[[0,0,0,0,5],[0,1,0,0,-5],[1,0,0,0,5],[1,1,0,0,-5]];perimeter=orthogonalPerimeter;outlineConnect=0;targetShapes=umlLifeline;portConstraint=eastwest;newEdgeStyle={&quot;curved&quot;:0,&quot;rounded&quot;:0};" parent="aM9ryv3xv72pqoxQDRHE-5" vertex="1">
                    <mxGeometry x="40" y="600" width="10" height="280" as="geometry"/>
                </mxCell>
                <mxCell id="igy6CoDfFQRIuPccJzhU-131" value="" style="html=1;points=[[0,0,0,0,5],[0,1,0,0,-5],[1,0,0,0,5],[1,1,0,0,-5]];perimeter=orthogonalPerimeter;outlineConnect=0;targetShapes=umlLifeline;portConstraint=eastwest;newEdgeStyle={&quot;curved&quot;:0,&quot;rounded&quot;:0};" parent="aM9ryv3xv72pqoxQDRHE-5" vertex="1">
                    <mxGeometry x="45" y="990" width="10" height="330" as="geometry"/>
                </mxCell>
                <mxCell id="igy6CoDfFQRIuPccJzhU-1" value="&lt;font style=&quot;vertical-align: inherit;&quot;&gt;&lt;font style=&quot;vertical-align: inherit;&quot;&gt;&lt;font style=&quot;vertical-align: inherit;&quot;&gt;&lt;font style=&quot;vertical-align: inherit;&quot;&gt;EmployeeAccount&lt;br&gt;service&lt;/font&gt;&lt;/font&gt;&lt;/font&gt;&lt;/font&gt;" style="shape=umlLifeline;perimeter=lifelinePerimeter;whiteSpace=wrap;html=1;container=0;dropTarget=0;collapsible=0;recursiveResize=0;outlineConnect=0;portConstraint=eastwest;newEdgeStyle={&quot;edgeStyle&quot;:&quot;elbowEdgeStyle&quot;,&quot;elbow&quot;:&quot;vertical&quot;,&quot;curved&quot;:0,&quot;rounded&quot;:0};" parent="1" vertex="1">
                    <mxGeometry x="440" y="90" width="100" height="1520" as="geometry"/>
                </mxCell>
                <mxCell id="igy6CoDfFQRIuPccJzhU-2" value="" style="html=1;points=[];perimeter=orthogonalPerimeter;outlineConnect=0;targetShapes=umlLifeline;portConstraint=eastwest;newEdgeStyle={&quot;edgeStyle&quot;:&quot;elbowEdgeStyle&quot;,&quot;elbow&quot;:&quot;vertical&quot;,&quot;curved&quot;:0,&quot;rounded&quot;:0};" parent="igy6CoDfFQRIuPccJzhU-1" vertex="1">
                    <mxGeometry x="45" y="120" width="10" height="120" as="geometry"/>
                </mxCell>
                <mxCell id="igy6CoDfFQRIuPccJzhU-137" value="" style="html=1;points=[[0,0,0,0,5],[0,1,0,0,-5],[1,0,0,0,5],[1,1,0,0,-5]];perimeter=orthogonalPerimeter;outlineConnect=0;targetShapes=umlLifeline;portConstraint=eastwest;newEdgeStyle={&quot;curved&quot;:0,&quot;rounded&quot;:0};" parent="igy6CoDfFQRIuPccJzhU-1" vertex="1">
                    <mxGeometry x="45" y="1010" width="10" height="180" as="geometry"/>
                </mxCell>
                <mxCell id="igy6CoDfFQRIuPccJzhU-3" value="&lt;div&gt;&lt;font style=&quot;vertical-align: inherit;&quot;&gt;&lt;font style=&quot;vertical-align: inherit;&quot;&gt;EmployeeAccount&lt;/font&gt;&lt;/font&gt;&lt;/div&gt;&lt;font style=&quot;vertical-align: inherit;&quot;&gt;&lt;font style=&quot;vertical-align: inherit;&quot;&gt;Repository&lt;/font&gt;&lt;/font&gt;" style="shape=umlLifeline;perimeter=lifelinePerimeter;whiteSpace=wrap;html=1;container=0;dropTarget=0;collapsible=0;recursiveResize=0;outlineConnect=0;portConstraint=eastwest;newEdgeStyle={&quot;edgeStyle&quot;:&quot;elbowEdgeStyle&quot;,&quot;elbow&quot;:&quot;vertical&quot;,&quot;curved&quot;:0,&quot;rounded&quot;:0};" parent="1" vertex="1">
                    <mxGeometry x="580" y="70" width="100" height="1310" as="geometry"/>
                </mxCell>
<<<<<<< HEAD
                <mxCell id="igy6CoDfFQRIuPccJzhU-140" value="" style="html=1;points=[[0,0,0,0,5],[0,1,0,0,-5],[1,0,0,0,5],[1,1,0,0,-5]];perimeter=orthogonalPerimeter;outlineConnect=0;targetShapes=umlLifeline;portConstraint=eastwest;newEdgeStyle={&quot;curved&quot;:0,&quot;rounded&quot;:0};" parent="igy6CoDfFQRIuPccJzhU-3" vertex="1">
                    <mxGeometry x="45" y="1060" width="10" height="120" as="geometry"/>
=======
                <mxCell id="36" value="" style="html=1;points=[[0,0,0,0,5],[0,1,0,0,-5],[1,0,0,0,5],[1,1,0,0,-5]];perimeter=orthogonalPerimeter;outlineConnect=0;targetShapes=umlLifeline;portConstraint=eastwest;newEdgeStyle={&quot;curved&quot;:0,&quot;rounded&quot;:0};" parent="igy6CoDfFQRIuPccJzhU-3" vertex="1">
                    <mxGeometry x="45" y="500" width="10" height="100" as="geometry"/>
                </mxCell>
                <mxCell id="46" value="" style="html=1;points=[[0,0,0,0,5],[0,1,0,0,-5],[1,0,0,0,5],[1,1,0,0,-5]];perimeter=orthogonalPerimeter;outlineConnect=0;targetShapes=umlLifeline;portConstraint=eastwest;newEdgeStyle={&quot;curved&quot;:0,&quot;rounded&quot;:0};" parent="igy6CoDfFQRIuPccJzhU-3" vertex="1">
                    <mxGeometry x="45" y="1060" width="10" height="130" as="geometry"/>
>>>>>>> 0894ed2775b1d53241c220fcd7a25aa28018077a
                </mxCell>
                <mxCell id="igy6CoDfFQRIuPccJzhU-5" value="&lt;font style=&quot;vertical-align: inherit;&quot;&gt;&lt;font style=&quot;vertical-align: inherit;&quot;&gt;EmployeeDB&lt;/font&gt;&lt;/font&gt;" style="shape=umlLifeline;perimeter=lifelinePerimeter;whiteSpace=wrap;html=1;container=0;dropTarget=0;collapsible=0;recursiveResize=0;outlineConnect=0;portConstraint=eastwest;newEdgeStyle={&quot;edgeStyle&quot;:&quot;elbowEdgeStyle&quot;,&quot;elbow&quot;:&quot;vertical&quot;,&quot;curved&quot;:0,&quot;rounded&quot;:0};" parent="1" vertex="1">
                    <mxGeometry x="1090" y="20" width="100" height="390" as="geometry"/>
                </mxCell>
                <mxCell id="igy6CoDfFQRIuPccJzhU-6" value="" style="html=1;points=[];perimeter=orthogonalPerimeter;outlineConnect=0;targetShapes=umlLifeline;portConstraint=eastwest;newEdgeStyle={&quot;edgeStyle&quot;:&quot;elbowEdgeStyle&quot;,&quot;elbow&quot;:&quot;vertical&quot;,&quot;curved&quot;:0,&quot;rounded&quot;:0};" parent="igy6CoDfFQRIuPccJzhU-5" vertex="1">
                    <mxGeometry x="45" y="210" width="10" height="60" as="geometry"/>
                </mxCell>
                <mxCell id="igy6CoDfFQRIuPccJzhU-8" value="" style="edgeStyle=elbowEdgeStyle;rounded=0;orthogonalLoop=1;jettySize=auto;html=1;elbow=vertical;curved=0;" parent="1" target="aM9ryv3xv72pqoxQDRHE-5" edge="1" source="aM9ryv3xv72pqoxQDRHE-1">
                    <mxGeometry relative="1" as="geometry">
                        <mxPoint x="95" y="140" as="sourcePoint"/>
                        <Array as="points">
                            <mxPoint x="170" y="140"/>
                        </Array>
                    </mxGeometry>
                </mxCell>
                <mxCell id="igy6CoDfFQRIuPccJzhU-9" value="form()" style="text;html=1;align=center;verticalAlign=middle;whiteSpace=wrap;rounded=0;" parent="1" vertex="1">
                    <mxGeometry x="140" y="110" width="60" height="30" as="geometry"/>
                </mxCell>
                <mxCell id="igy6CoDfFQRIuPccJzhU-53" value="EmployeeAccount&lt;div&gt;Form&lt;/div&gt;" style="shape=umlLifeline;perimeter=lifelinePerimeter;whiteSpace=wrap;html=1;container=1;dropTarget=0;collapsible=0;recursiveResize=0;outlineConnect=0;portConstraint=eastwest;newEdgeStyle={&quot;curved&quot;:0,&quot;rounded&quot;:0};" parent="1" vertex="1">
                    <mxGeometry x="320" y="100" width="100" height="1300" as="geometry"/>
                </mxCell>
                <mxCell id="igy6CoDfFQRIuPccJzhU-121" value="" style="html=1;points=[[0,0,0,0,5],[0,1,0,0,-5],[1,0,0,0,5],[1,1,0,0,-5]];perimeter=orthogonalPerimeter;outlineConnect=0;targetShapes=umlLifeline;portConstraint=eastwest;newEdgeStyle={&quot;curved&quot;:0,&quot;rounded&quot;:0};" parent="igy6CoDfFQRIuPccJzhU-53" vertex="1">
                    <mxGeometry x="45" y="550" width="10" height="80" as="geometry"/>
                </mxCell>
                <mxCell id="igy6CoDfFQRIuPccJzhU-63" value="&lt;div&gt;&lt;font style=&quot;vertical-align: inherit;&quot;&gt;&lt;font style=&quot;vertical-align: inherit;&quot;&gt;EmployeeAccount&lt;/font&gt;&lt;/font&gt;&lt;/div&gt;&lt;font style=&quot;vertical-align: inherit;&quot;&gt;&lt;font style=&quot;vertical-align: inherit;&quot;&gt;DB&lt;/font&gt;&lt;/font&gt;" style="shape=umlLifeline;perimeter=lifelinePerimeter;whiteSpace=wrap;html=1;container=0;dropTarget=0;collapsible=0;recursiveResize=0;outlineConnect=0;portConstraint=eastwest;newEdgeStyle={&quot;edgeStyle&quot;:&quot;elbowEdgeStyle&quot;,&quot;elbow&quot;:&quot;vertical&quot;,&quot;curved&quot;:0,&quot;rounded&quot;:0};" parent="1" vertex="1">
                    <mxGeometry x="910" y="420" width="100" height="1010" as="geometry"/>
                </mxCell>
                <mxCell id="igy6CoDfFQRIuPccJzhU-143" value="" style="html=1;points=[[0,0,0,0,5],[0,1,0,0,-5],[1,0,0,0,5],[1,1,0,0,-5]];perimeter=orthogonalPerimeter;outlineConnect=0;targetShapes=umlLifeline;portConstraint=eastwest;newEdgeStyle={&quot;curved&quot;:0,&quot;rounded&quot;:0};" parent="igy6CoDfFQRIuPccJzhU-63" vertex="1">
                    <mxGeometry x="45" y="730" width="10" height="80" as="geometry"/>
                </mxCell>
                <mxCell id="igy6CoDfFQRIuPccJzhU-65" value="&lt;font style=&quot;vertical-align: inherit;&quot;&gt;&lt;font style=&quot;vertical-align: inherit;&quot;&gt;Employee&lt;/font&gt;&lt;/font&gt;&lt;div&gt;&lt;font style=&quot;vertical-align: inherit;&quot;&gt;&lt;font style=&quot;vertical-align: inherit;&quot;&gt;Repository&lt;/font&gt;&lt;/font&gt;&lt;/div&gt;" style="shape=umlLifeline;perimeter=lifelinePerimeter;whiteSpace=wrap;html=1;container=0;dropTarget=0;collapsible=0;recursiveResize=0;outlineConnect=0;portConstraint=eastwest;newEdgeStyle={&quot;edgeStyle&quot;:&quot;elbowEdgeStyle&quot;,&quot;elbow&quot;:&quot;vertical&quot;,&quot;curved&quot;:0,&quot;rounded&quot;:0};" parent="1" vertex="1">
                    <mxGeometry x="750" y="40" width="100" height="610" as="geometry"/>
                </mxCell>
                <mxCell id="igy6CoDfFQRIuPccJzhU-66" value="" style="html=1;points=[];perimeter=orthogonalPerimeter;outlineConnect=0;targetShapes=umlLifeline;portConstraint=eastwest;newEdgeStyle={&quot;edgeStyle&quot;:&quot;elbowEdgeStyle&quot;,&quot;elbow&quot;:&quot;vertical&quot;,&quot;curved&quot;:0,&quot;rounded&quot;:0};" parent="igy6CoDfFQRIuPccJzhU-65" vertex="1">
                    <mxGeometry x="45" y="180" width="10" height="100" as="geometry"/>
                </mxCell>
                <mxCell id="igy6CoDfFQRIuPccJzhU-76" value="" style="endArrow=classic;html=1;rounded=0;" parent="1" target="igy6CoDfFQRIuPccJzhU-1" edge="1">
                    <mxGeometry width="50" height="50" relative="1" as="geometry">
                        <mxPoint x="259.9135294117647" y="210" as="sourcePoint"/>
                        <mxPoint x="460.0900000000001" y="210" as="targetPoint"/>
                    </mxGeometry>
                </mxCell>
                <mxCell id="igy6CoDfFQRIuPccJzhU-78" value="getEmpName()" style="text;html=1;align=center;verticalAlign=middle;resizable=0;points=[];autosize=1;strokeColor=none;fillColor=none;" parent="1" vertex="1">
                    <mxGeometry x="260" y="180" width="100" height="30" as="geometry"/>
                </mxCell>
                <mxCell id="igy6CoDfFQRIuPccJzhU-80" value="" style="endArrow=classic;html=1;rounded=0;" parent="1" edge="1">
                    <mxGeometry width="50" height="50" relative="1" as="geometry">
                        <mxPoint x="489.82352941176464" y="224.41000000000003" as="sourcePoint"/>
                        <mxPoint x="800.0000000000002" y="224.41000000000003" as="targetPoint"/>
                    </mxGeometry>
                </mxCell>
                <mxCell id="igy6CoDfFQRIuPccJzhU-81" value="selectAllEmpName()" style="text;html=1;align=center;verticalAlign=middle;whiteSpace=wrap;rounded=0;" parent="1" vertex="1">
                    <mxGeometry x="530" y="200" width="60" height="30" as="geometry"/>
                </mxCell>
                <mxCell id="igy6CoDfFQRIuPccJzhU-82" value="" style="endArrow=classic;html=1;rounded=0;" parent="1" source="igy6CoDfFQRIuPccJzhU-66" edge="1">
                    <mxGeometry width="50" height="50" relative="1" as="geometry">
                        <mxPoint x="880.0035294117647" y="240" as="sourcePoint"/>
                        <mxPoint x="1140.18" y="240" as="targetPoint"/>
                    </mxGeometry>
                </mxCell>
                <mxCell id="igy6CoDfFQRIuPccJzhU-87" value="SQL(SELECT EMPLOYEE_NAME)" style="text;html=1;align=center;verticalAlign=middle;resizable=0;points=[];autosize=1;strokeColor=none;fillColor=none;" parent="1" vertex="1">
                    <mxGeometry x="800" y="210" width="210" height="30" as="geometry"/>
                </mxCell>
                <mxCell id="igy6CoDfFQRIuPccJzhU-88" value="" style="endArrow=block;dashed=1;endFill=0;endSize=12;html=1;rounded=0;" parent="1" source="igy6CoDfFQRIuPccJzhU-6" target="igy6CoDfFQRIuPccJzhU-65" edge="1">
                    <mxGeometry width="160" relative="1" as="geometry">
                        <mxPoint x="1139.6000000000001" y="264.40999999999997" as="sourcePoint"/>
                        <mxPoint x="880.0000000000002" y="264.40999999999997" as="targetPoint"/>
                        <Array as="points">
                            <mxPoint x="1040" y="290"/>
                        </Array>
                    </mxGeometry>
                </mxCell>
                <mxCell id="igy6CoDfFQRIuPccJzhU-90" value="List&amp;lt;String&amp;gt;empName" style="text;html=1;align=center;verticalAlign=middle;resizable=0;points=[];autosize=1;strokeColor=none;fillColor=none;" parent="1" vertex="1">
                    <mxGeometry x="1000" y="260" width="140" height="30" as="geometry"/>
                </mxCell>
                <mxCell id="igy6CoDfFQRIuPccJzhU-92" value="" style="endArrow=block;dashed=1;endFill=0;endSize=12;html=1;rounded=0;" parent="1" source="igy6CoDfFQRIuPccJzhU-65" edge="1">
                    <mxGeometry width="160" relative="1" as="geometry">
                        <mxPoint x="729.5999999999999" y="320" as="sourcePoint"/>
                        <mxPoint x="490" y="320" as="targetPoint"/>
                    </mxGeometry>
                </mxCell>
                <mxCell id="igy6CoDfFQRIuPccJzhU-93" value="List&amp;lt;String&amp;gt;empName" style="text;html=1;align=center;verticalAlign=middle;resizable=0;points=[];autosize=1;strokeColor=none;fillColor=none;" parent="1" vertex="1">
                    <mxGeometry x="650" y="290" width="140" height="30" as="geometry"/>
                </mxCell>
                <mxCell id="igy6CoDfFQRIuPccJzhU-97" value="" style="endArrow=block;dashed=1;endFill=0;endSize=12;html=1;rounded=0;" parent="1" edge="1">
                    <mxGeometry width="160" relative="1" as="geometry">
                        <mxPoint x="485.09" y="330" as="sourcePoint"/>
                        <mxPoint x="254.91352941176464" y="330" as="targetPoint"/>
                    </mxGeometry>
                </mxCell>
                <mxCell id="igy6CoDfFQRIuPccJzhU-98" value="List&amp;lt;String&amp;gt;empName" style="text;html=1;align=center;verticalAlign=middle;resizable=0;points=[];autosize=1;strokeColor=none;fillColor=none;" parent="1" vertex="1">
                    <mxGeometry x="330" y="300" width="140" height="30" as="geometry"/>
                </mxCell>
                <mxCell id="igy6CoDfFQRIuPccJzhU-100" value="Modelにセット&lt;br&gt;（プルダウン用）" style="html=1;align=left;spacingLeft=2;endArrow=block;rounded=0;edgeStyle=orthogonalEdgeStyle;curved=0;rounded=0;" parent="1" edge="1">
                    <mxGeometry x="-0.2941" relative="1" as="geometry">
                        <mxPoint x="260" y="430" as="sourcePoint"/>
                        <Array as="points">
                            <mxPoint x="290" y="460"/>
                        </Array>
                        <mxPoint x="265" y="460.0588235294118" as="targetPoint"/>
                        <mxPoint y="-1" as="offset"/>
                    </mxGeometry>
                </mxCell>
                <mxCell id="igy6CoDfFQRIuPccJzhU-101" value="" style="endArrow=block;dashed=1;endFill=0;endSize=12;html=1;rounded=0;" parent="1" edge="1">
                    <mxGeometry width="160" relative="1" as="geometry">
                        <mxPoint x="250" y="490" as="sourcePoint"/>
                        <mxPoint x="90" y="490" as="targetPoint"/>
                    </mxGeometry>
                </mxCell>
                <mxCell id="igy6CoDfFQRIuPccJzhU-102" value="BP003" style="text;html=1;align=center;verticalAlign=middle;resizable=0;points=[];autosize=1;strokeColor=none;fillColor=none;" parent="1" vertex="1">
                    <mxGeometry x="185" y="460" width="60" height="30" as="geometry"/>
                </mxCell>
<<<<<<< HEAD
                <mxCell id="igy6CoDfFQRIuPccJzhU-104" value="アカウント情報&lt;div&gt;入力&lt;/div&gt;" style="html=1;align=left;spacingLeft=2;endArrow=block;rounded=0;edgeStyle=orthogonalEdgeStyle;curved=0;rounded=0;" parent="1" edge="1">
                    <mxGeometry x="-0.0604" y="20" relative="1" as="geometry">
                        <mxPoint x="90" y="530" as="sourcePoint"/>
                        <Array as="points">
                            <mxPoint x="120" y="560"/>
                        </Array>
                        <mxPoint x="95" y="560.0588235294118" as="targetPoint"/>
                        <mxPoint as="offset"/>
                    </mxGeometry>
                </mxCell>
                <mxCell id="igy6CoDfFQRIuPccJzhU-113" value="cionfirm()" style="html=1;verticalAlign=bottom;endArrow=block;curved=0;rounded=0;entryX=0;entryY=0;entryDx=0;entryDy=5;" parent="1" target="igy6CoDfFQRIuPccJzhU-112" edge="1">
                    <mxGeometry relative="1" as="geometry">
                        <mxPoint x="90" y="645" as="sourcePoint"/>
                    </mxGeometry>
                </mxCell>
                <mxCell id="igy6CoDfFQRIuPccJzhU-114" value="BP004" style="html=1;verticalAlign=bottom;endArrow=open;dashed=1;endSize=8;curved=0;rounded=0;exitX=0;exitY=1;exitDx=0;exitDy=-5;" parent="1" source="igy6CoDfFQRIuPccJzhU-112" target="aM9ryv3xv72pqoxQDRHE-1" edge="1">
                    <mxGeometry x="-0.0013" relative="1" as="geometry">
                        <mxPoint x="90" y="715" as="targetPoint"/>
                        <mxPoint as="offset"/>
                    </mxGeometry>
                </mxCell>
                <mxCell id="igy6CoDfFQRIuPccJzhU-122" value="アカウント情報セット" style="html=1;verticalAlign=bottom;endArrow=block;curved=0;rounded=0;entryX=0;entryY=0;entryDx=0;entryDy=5;" parent="1" source="aM9ryv3xv72pqoxQDRHE-5" target="igy6CoDfFQRIuPccJzhU-121" edge="1">
                    <mxGeometry relative="1" as="geometry">
                        <mxPoint x="281" y="645" as="sourcePoint"/>
                    </mxGeometry>
                </mxCell>
                <mxCell id="igy6CoDfFQRIuPccJzhU-123" value="AccEmpForm" style="html=1;verticalAlign=bottom;endArrow=open;dashed=1;endSize=8;curved=0;rounded=0;exitX=0;exitY=1;exitDx=0;exitDy=-5;" parent="1" source="igy6CoDfFQRIuPccJzhU-121" target="aM9ryv3xv72pqoxQDRHE-5" edge="1">
                    <mxGeometry x="0.0019" relative="1" as="geometry">
                        <mxPoint x="281" y="715" as="targetPoint"/>
                        <mxPoint as="offset"/>
                    </mxGeometry>
                </mxCell>
                <mxCell id="igy6CoDfFQRIuPccJzhU-130" value="バリデート" style="html=1;align=left;spacingLeft=2;endArrow=block;rounded=0;edgeStyle=orthogonalEdgeStyle;curved=0;rounded=0;" parent="1" edge="1">
                    <mxGeometry x="-0.0035" relative="1" as="geometry">
                        <mxPoint x="260" y="750.06" as="sourcePoint"/>
                        <Array as="points">
                            <mxPoint x="290" y="780.06"/>
                        </Array>
                        <mxPoint x="265" y="780.001176470588" as="targetPoint"/>
                        <mxPoint as="offset"/>
                    </mxGeometry>
                </mxCell>
                <mxCell id="igy6CoDfFQRIuPccJzhU-132" value="execute()" style="html=1;verticalAlign=bottom;endArrow=block;curved=0;rounded=0;entryX=0;entryY=0;entryDx=0;entryDy=5;" parent="1" edge="1">
=======
                <mxCell id="igy6CoDfFQRIuPccJzhU-132" value="execute()" style="html=1;verticalAlign=bottom;endArrow=block;curved=0;rounded=0;" parent="1" target="3" edge="1">
>>>>>>> 0894ed2775b1d53241c220fcd7a25aa28018077a
                    <mxGeometry relative="1" as="geometry">
                        <mxPoint x="94.32352941176475" y="1029.9999999999998" as="sourcePoint"/>
                        <mxPoint x="260" y="1029.9999999999998" as="targetPoint"/>
                    </mxGeometry>
                </mxCell>
                <mxCell id="igy6CoDfFQRIuPccJzhU-133" value="BP005" style="html=1;verticalAlign=bottom;endArrow=open;dashed=1;endSize=8;curved=0;rounded=0;exitX=0;exitY=1;exitDx=0;exitDy=-5;" parent="1" source="igy6CoDfFQRIuPccJzhU-131" target="aM9ryv3xv72pqoxQDRHE-1" edge="1">
                    <mxGeometry relative="1" as="geometry">
                        <mxPoint x="185" y="945" as="targetPoint"/>
                    </mxGeometry>
                </mxCell>
<<<<<<< HEAD
                <mxCell id="igy6CoDfFQRIuPccJzhU-134" value="&lt;span style=&quot;background-color: rgb(255, 0, 0);&quot;&gt;重複アカウントどうする&lt;/span&gt;" style="text;html=1;align=center;verticalAlign=middle;resizable=0;points=[];autosize=1;strokeColor=none;fillColor=none;" parent="1" vertex="1">
                    <mxGeometry x="250" y="780" width="160" height="30" as="geometry"/>
                </mxCell>
                <mxCell id="igy6CoDfFQRIuPccJzhU-136" value="パスワード暗号化" style="html=1;align=left;spacingLeft=2;endArrow=block;rounded=0;edgeStyle=orthogonalEdgeStyle;curved=0;rounded=0;" parent="1" edge="1">
                    <mxGeometry x="-0.0035" relative="1" as="geometry">
                        <mxPoint x="260" y="840" as="sourcePoint"/>
                        <Array as="points">
                            <mxPoint x="290" y="870"/>
                        </Array>
                        <mxPoint x="265" y="869.9411764705881" as="targetPoint"/>
=======
                <mxCell id="igy6CoDfFQRIuPccJzhU-138" value="addEmpAccount(Account)" style="html=1;verticalAlign=bottom;endArrow=block;curved=0;rounded=0;entryX=0;entryY=0;entryDx=0;entryDy=5;" parent="1" edge="1">
                    <mxGeometry x="-0.0038" relative="1" as="geometry">
                        <mxPoint x="415" y="1090" as="sourcePoint"/>
>>>>>>> 0894ed2775b1d53241c220fcd7a25aa28018077a
                        <mxPoint as="offset"/>
                    </mxGeometry>
                </mxCell>
                <mxCell id="igy6CoDfFQRIuPccJzhU-138" value="addEmpAccount(EmpAccount)" style="html=1;verticalAlign=bottom;endArrow=block;curved=0;rounded=0;entryX=0;entryY=0;entryDx=0;entryDy=5;" parent="1" source="aM9ryv3xv72pqoxQDRHE-5" target="igy6CoDfFQRIuPccJzhU-137" edge="1">
                    <mxGeometry x="0.0009" relative="1" as="geometry">
                        <mxPoint x="415" y="1055" as="sourcePoint"/>
                        <mxPoint as="offset"/>
                    </mxGeometry>
                </mxCell>
                <mxCell id="igy6CoDfFQRIuPccJzhU-139" value="void" style="html=1;verticalAlign=bottom;endArrow=open;dashed=1;endSize=8;curved=0;rounded=0;exitX=0;exitY=1;exitDx=0;exitDy=-5;" parent="1" source="igy6CoDfFQRIuPccJzhU-137" target="aM9ryv3xv72pqoxQDRHE-5" edge="1">
                    <mxGeometry relative="1" as="geometry">
                        <mxPoint x="415" y="1125" as="targetPoint"/>
                    </mxGeometry>
                </mxCell>
<<<<<<< HEAD
                <mxCell id="igy6CoDfFQRIuPccJzhU-141" value="insert(Account)" style="html=1;verticalAlign=bottom;endArrow=block;curved=0;rounded=0;entryX=0;entryY=0;entryDx=0;entryDy=5;" parent="1" source="igy6CoDfFQRIuPccJzhU-1" target="igy6CoDfFQRIuPccJzhU-140" edge="1">
=======
                <mxCell id="igy6CoDfFQRIuPccJzhU-141" value="INSERT文を実行" style="html=1;verticalAlign=bottom;endArrow=block;curved=0;rounded=0;entryX=0;entryY=0;entryDx=0;entryDy=5;" parent="1" edge="1">
>>>>>>> 0894ed2775b1d53241c220fcd7a25aa28018077a
                    <mxGeometry relative="1" as="geometry">
                        <mxPoint x="555" y="1135" as="sourcePoint"/>
                    </mxGeometry>
                </mxCell>
<<<<<<< HEAD
                <mxCell id="igy6CoDfFQRIuPccJzhU-142" value="void" style="html=1;verticalAlign=bottom;endArrow=open;dashed=1;endSize=8;curved=0;rounded=0;exitX=0;exitY=1;exitDx=0;exitDy=-5;" parent="1" source="igy6CoDfFQRIuPccJzhU-140" target="igy6CoDfFQRIuPccJzhU-1" edge="1">
=======
                <mxCell id="igy6CoDfFQRIuPccJzhU-142" value="int[" style="html=1;verticalAlign=bottom;endArrow=open;dashed=1;endSize=8;curved=0;rounded=0;exitX=0;exitY=1;exitDx=0;exitDy=-5;" parent="1" source="igy6CoDfFQRIuPccJzhU-140" edge="1">
>>>>>>> 0894ed2775b1d53241c220fcd7a25aa28018077a
                    <mxGeometry relative="1" as="geometry">
                        <mxPoint x="555" y="1205" as="targetPoint"/>
                    </mxGeometry>
                </mxCell>
                <mxCell id="igy6CoDfFQRIuPccJzhU-144" value="(SQL)INSERT" style="html=1;verticalAlign=bottom;endArrow=block;curved=0;rounded=0;entryX=0;entryY=0;entryDx=0;entryDy=5;" parent="1" source="igy6CoDfFQRIuPccJzhU-3" target="igy6CoDfFQRIuPccJzhU-143" edge="1">
                    <mxGeometry relative="1" as="geometry">
                        <mxPoint x="680" y="1175" as="sourcePoint"/>
                    </mxGeometry>
                </mxCell>
                <mxCell id="igy6CoDfFQRIuPccJzhU-145" value="void" style="html=1;verticalAlign=bottom;endArrow=open;dashed=1;endSize=8;curved=0;rounded=0;exitX=0;exitY=1;exitDx=0;exitDy=-5;" parent="1" source="igy6CoDfFQRIuPccJzhU-143" target="igy6CoDfFQRIuPccJzhU-3" edge="1">
                    <mxGeometry relative="1" as="geometry">
                        <mxPoint x="680" y="1245" as="targetPoint"/>
                    </mxGeometry>
                </mxCell>
<<<<<<< HEAD
=======
                <mxCell id="3" value="&lt;font style=&quot;vertical-align: inherit;&quot;&gt;&lt;font style=&quot;vertical-align: inherit;&quot;&gt;Employee&lt;/font&gt;&lt;/font&gt;&lt;div&gt;&lt;font style=&quot;vertical-align: inherit;&quot;&gt;&lt;font style=&quot;vertical-align: inherit;&quot;&gt;Account&lt;br&gt;Controller&lt;/font&gt;&lt;/font&gt;&lt;/div&gt;" style="shape=umlLifeline;perimeter=lifelinePerimeter;whiteSpace=wrap;html=1;container=0;dropTarget=0;collapsible=0;recursiveResize=0;outlineConnect=0;portConstraint=eastwest;newEdgeStyle={&quot;edgeStyle&quot;:&quot;elbowEdgeStyle&quot;,&quot;elbow&quot;:&quot;vertical&quot;,&quot;curved&quot;:0,&quot;rounded&quot;:0};" parent="1" vertex="1">
                    <mxGeometry x="360" y="40" width="100" height="1640" as="geometry"/>
                </mxCell>
                <mxCell id="30" value="" style="html=1;points=[[0,0,0,0,5],[0,1,0,0,-5],[1,0,0,0,5],[1,1,0,0,-5]];perimeter=orthogonalPerimeter;outlineConnect=0;targetShapes=umlLifeline;portConstraint=eastwest;newEdgeStyle={&quot;curved&quot;:0,&quot;rounded&quot;:0};" parent="3" vertex="1">
                    <mxGeometry x="45" y="480" width="10" height="240" as="geometry"/>
                </mxCell>
                <mxCell id="igy6CoDfFQRIuPccJzhU-131" value="" style="html=1;points=[[0,0,0,0,5],[0,1,0,0,-5],[1,0,0,0,5],[1,1,0,0,-5]];perimeter=orthogonalPerimeter;outlineConnect=0;targetShapes=umlLifeline;portConstraint=eastwest;newEdgeStyle={&quot;curved&quot;:0,&quot;rounded&quot;:0};" parent="3" vertex="1">
                    <mxGeometry x="45" y="980" width="10" height="330" as="geometry"/>
                </mxCell>
                <mxCell id="52" value="flashattributeにAccountを入れる" style="html=1;align=left;spacingLeft=2;endArrow=block;rounded=0;edgeStyle=orthogonalEdgeStyle;curved=0;rounded=0;" parent="3" source="igy6CoDfFQRIuPccJzhU-131" target="igy6CoDfFQRIuPccJzhU-131" edge="1">
                    <mxGeometry relative="1" as="geometry">
                        <mxPoint x="61" y="1100" as="sourcePoint"/>
                        <Array as="points">
                            <mxPoint x="91" y="990"/>
                            <mxPoint x="91" y="1020"/>
                            <mxPoint x="66" y="1020"/>
                            <mxPoint x="66" y="1030"/>
                        </Array>
                        <mxPoint x="66" y="1259.9999999999998" as="targetPoint"/>
                    </mxGeometry>
                </mxCell>
                <mxCell id="57" value="" style="html=1;points=[[0,0,0,0,5],[0,1,0,0,-5],[1,0,0,0,5],[1,1,0,0,-5]];perimeter=orthogonalPerimeter;outlineConnect=0;targetShapes=umlLifeline;portConstraint=eastwest;newEdgeStyle={&quot;curved&quot;:0,&quot;rounded&quot;:0};" parent="3" vertex="1">
                    <mxGeometry x="45" y="1400" width="10" height="160" as="geometry"/>
                </mxCell>
                <mxCell id="63" value="セッションを破棄する" style="html=1;align=left;spacingLeft=2;endArrow=block;rounded=0;edgeStyle=orthogonalEdgeStyle;curved=0;rounded=0;" parent="3" edge="1">
                    <mxGeometry relative="1" as="geometry">
                        <mxPoint x="51" y="1440" as="sourcePoint"/>
                        <Array as="points">
                            <mxPoint x="81" y="1470"/>
                        </Array>
                        <mxPoint x="56" y="1470" as="targetPoint"/>
                    </mxGeometry>
                </mxCell>
                <mxCell id="7" value="&lt;div&gt;&lt;font style=&quot;vertical-align: inherit;&quot;&gt;&lt;font style=&quot;vertical-align: inherit;&quot;&gt;EmployeeAccount&lt;/font&gt;&lt;/font&gt;&lt;/div&gt;Service" style="shape=umlLifeline;perimeter=lifelinePerimeter;whiteSpace=wrap;html=1;container=0;dropTarget=0;collapsible=0;recursiveResize=0;outlineConnect=0;portConstraint=eastwest;newEdgeStyle={&quot;edgeStyle&quot;:&quot;elbowEdgeStyle&quot;,&quot;elbow&quot;:&quot;vertical&quot;,&quot;curved&quot;:0,&quot;rounded&quot;:0};" parent="1" vertex="1">
                    <mxGeometry x="680" y="40" width="100" height="1640" as="geometry"/>
                </mxCell>
                <mxCell id="33" value="" style="html=1;points=[[0,0,0,0,5],[0,1,0,0,-5],[1,0,0,0,5],[1,1,0,0,-5]];perimeter=orthogonalPerimeter;outlineConnect=0;targetShapes=umlLifeline;portConstraint=eastwest;newEdgeStyle={&quot;curved&quot;:0,&quot;rounded&quot;:0};" parent="7" vertex="1">
                    <mxGeometry x="45" y="500" width="10" height="100" as="geometry"/>
                </mxCell>
                <mxCell id="igy6CoDfFQRIuPccJzhU-137" value="" style="html=1;points=[[0,0,0,0,5],[0,1,0,0,-5],[1,0,0,0,5],[1,1,0,0,-5]];perimeter=orthogonalPerimeter;outlineConnect=0;targetShapes=umlLifeline;portConstraint=eastwest;newEdgeStyle={&quot;curved&quot;:0,&quot;rounded&quot;:0};" parent="7" vertex="1">
                    <mxGeometry x="45" y="1050" width="10" height="160" as="geometry"/>
                </mxCell>
                <mxCell id="11" value="selectEmployeeWithNoAcc()" style="html=1;verticalAlign=bottom;endArrow=block;curved=0;rounded=0;entryX=0;entryY=0;entryDx=0;entryDy=5;" parent="1" source="igy6CoDfFQRIuPccJzhU-2" target="10" edge="1">
                    <mxGeometry relative="1" as="geometry">
                        <mxPoint x="550.0007692307693" y="195" as="sourcePoint"/>
                    </mxGeometry>
                </mxCell>
                <mxCell id="13" value="SELECT文" style="html=1;verticalAlign=bottom;endArrow=block;curved=0;rounded=0;entryX=0;entryY=0;entryDx=0;entryDy=5;" parent="1" edge="1">
                    <mxGeometry x="-0.0006" relative="1" as="geometry">
                        <mxPoint x="895" y="200" as="sourcePoint"/>
                        <mxPoint x="1205" y="200" as="targetPoint"/>
                        <mxPoint as="offset"/>
                    </mxGeometry>
                </mxCell>
                <mxCell id="17" value="" style="html=1;verticalAlign=bottom;endArrow=open;dashed=1;endSize=8;curved=0;rounded=0;exitX=0;exitY=1;exitDx=0;exitDy=-5;" parent="1" edge="1">
                    <mxGeometry relative="1" as="geometry">
                        <mxPoint x="890" y="280" as="targetPoint"/>
                        <mxPoint x="1204.73" y="280" as="sourcePoint"/>
                    </mxGeometry>
                </mxCell>
                <mxCell id="18" value="List&amp;lt;String&amp;gt;empName" style="text;html=1;align=center;verticalAlign=middle;resizable=0;points=[];autosize=1;strokeColor=none;fillColor=none;" parent="1" vertex="1">
                    <mxGeometry x="1050" y="250" width="140" height="30" as="geometry"/>
                </mxCell>
                <mxCell id="12" value="" style="html=1;verticalAlign=bottom;endArrow=open;dashed=1;endSize=8;curved=0;rounded=0;exitX=0;exitY=1;exitDx=0;exitDy=-5;" parent="1" source="10" target="igy6CoDfFQRIuPccJzhU-1" edge="1">
                    <mxGeometry relative="1" as="geometry">
                        <mxPoint x="800.27" y="265" as="targetPoint"/>
                    </mxGeometry>
                </mxCell>
                <mxCell id="26" value="アカウント情報入力" style="html=1;align=left;spacingLeft=2;endArrow=block;rounded=0;edgeStyle=orthogonalEdgeStyle;curved=0;rounded=0;" parent="1" edge="1">
                    <mxGeometry relative="1" as="geometry">
                        <mxPoint x="90" y="470" as="sourcePoint"/>
                        <Array as="points">
                            <mxPoint x="120" y="500"/>
                        </Array>
                        <mxPoint x="95" y="500" as="targetPoint"/>
                    </mxGeometry>
                </mxCell>
                <mxCell id="31" value="confirm()" style="html=1;verticalAlign=bottom;endArrow=block;curved=0;rounded=0;entryX=0;entryY=0;entryDx=0;entryDy=5;" parent="1" source="aM9ryv3xv72pqoxQDRHE-1" target="30" edge="1">
                    <mxGeometry relative="1" as="geometry">
                        <mxPoint x="175" y="525" as="sourcePoint"/>
                    </mxGeometry>
                </mxCell>
                <mxCell id="32" value="BP004" style="html=1;verticalAlign=bottom;endArrow=open;dashed=1;endSize=8;curved=0;rounded=0;" parent="1" edge="1">
                    <mxGeometry relative="1" as="geometry">
                        <mxPoint x="89.07142857142844" y="760" as="targetPoint"/>
                        <mxPoint x="405" y="760" as="sourcePoint"/>
                    </mxGeometry>
                </mxCell>
                <mxCell id="34" value="getEmployeeAccountByName()" style="html=1;verticalAlign=bottom;endArrow=block;curved=0;rounded=0;entryX=0;entryY=0;entryDx=0;entryDy=5;" parent="1" source="30" target="33" edge="1">
                    <mxGeometry relative="1" as="geometry">
                        <mxPoint x="335" y="535" as="sourcePoint"/>
                    </mxGeometry>
                </mxCell>
                <mxCell id="37" value="selectEmployeeAccountByName()" style="html=1;verticalAlign=bottom;endArrow=block;curved=0;rounded=0;entryX=0;entryY=0;entryDx=0;entryDy=5;" parent="1" source="33" target="36" edge="1">
                    <mxGeometry relative="1" as="geometry">
                        <mxPoint x="420" y="555" as="sourcePoint"/>
                    </mxGeometry>
                </mxCell>
                <mxCell id="38" value="Int sameNameNum" style="html=1;verticalAlign=bottom;endArrow=open;dashed=1;endSize=8;curved=0;rounded=0;exitX=0;exitY=1;exitDx=0;exitDy=-5;entryX=1;entryY=1;entryDx=0;entryDy=-5;entryPerimeter=0;" parent="1" source="36" target="33" edge="1">
                    <mxGeometry relative="1" as="geometry">
                        <mxPoint x="740" y="635" as="targetPoint"/>
                    </mxGeometry>
                </mxCell>
                <mxCell id="35" value="Int sameNameNum" style="html=1;verticalAlign=bottom;endArrow=open;dashed=1;endSize=8;curved=0;rounded=0;exitX=0;exitY=1;exitDx=0;exitDy=-5;" parent="1" source="33" target="30" edge="1">
                    <mxGeometry relative="1" as="geometry">
                        <mxPoint x="335" y="605" as="targetPoint"/>
                    </mxGeometry>
                </mxCell>
                <mxCell id="39" value="alt" style="shape=umlFrame;whiteSpace=wrap;html=1;pointerEvents=0;" parent="1" vertex="1">
                    <mxGeometry x="380" y="660" width="1040" height="40" as="geometry"/>
                </mxCell>
                <mxCell id="41" value="アカウント名が重複しているならBP003に戻る" style="text;html=1;align=center;verticalAlign=middle;resizable=0;points=[];autosize=1;strokeColor=none;fillColor=none;" parent="1" vertex="1">
                    <mxGeometry x="430" y="665" width="280" height="30" as="geometry"/>
                </mxCell>
                <mxCell id="43" value="セッション&lt;span style=&quot;background-color: light-dark(#ffffff, var(--ge-dark-color, #121212));&quot;&gt;に&lt;/span&gt;&lt;div&gt;&lt;span style=&quot;background-color: light-dark(#ffffff, var(--ge-dark-color, #121212));&quot;&gt;AccountFormを入れる&lt;/span&gt;&lt;/div&gt;" style="html=1;align=left;spacingLeft=2;endArrow=block;rounded=0;edgeStyle=orthogonalEdgeStyle;curved=0;rounded=0;" parent="1" edge="1">
                    <mxGeometry relative="1" as="geometry">
                        <mxPoint x="420" y="710" as="sourcePoint"/>
                        <Array as="points">
                            <mxPoint x="480.68" y="709.94"/>
                            <mxPoint x="480.68" y="749.94"/>
                        </Array>
                        <mxPoint x="410" y="750" as="targetPoint"/>
                    </mxGeometry>
                </mxCell>
                <mxCell id="48" value="int" style="html=1;verticalAlign=bottom;endArrow=open;dashed=1;endSize=8;curved=0;rounded=0;" parent="1" edge="1">
                    <mxGeometry x="-0.0017" relative="1" as="geometry">
                        <mxPoint x="734.1666666666667" y="1229.9999999999998" as="targetPoint"/>
                        <mxPoint x="1049.9999999999998" y="1229.9999999999998" as="sourcePoint"/>
                        <mxPoint as="offset"/>
                    </mxGeometry>
                </mxCell>
                <mxCell id="47" value="insertEmployeeAccount" style="html=1;verticalAlign=bottom;endArrow=block;curved=0;rounded=0;entryX=0;entryY=0;entryDx=0;entryDy=5;" parent="1" edge="1">
                    <mxGeometry relative="1" as="geometry">
                        <mxPoint x="738" y="1100" as="sourcePoint"/>
                        <mxPoint x="1042.5" y="1100" as="targetPoint"/>
                    </mxGeometry>
                </mxCell>
                <mxCell id="58" value="complete()" style="html=1;verticalAlign=bottom;endArrow=block;curved=0;rounded=0;entryX=0;entryY=0;entryDx=0;entryDy=5;" parent="1" source="aM9ryv3xv72pqoxQDRHE-1" target="57" edge="1">
                    <mxGeometry relative="1" as="geometry">
                        <mxPoint x="335" y="1445" as="sourcePoint"/>
                    </mxGeometry>
                </mxCell>
                <mxCell id="59" value="BP005" style="html=1;verticalAlign=bottom;endArrow=open;dashed=1;endSize=8;curved=0;rounded=0;exitX=0;exitY=1;exitDx=0;exitDy=-5;" parent="1" source="57" target="aM9ryv3xv72pqoxQDRHE-1" edge="1">
                    <mxGeometry relative="1" as="geometry">
                        <mxPoint x="335" y="1515" as="targetPoint"/>
                    </mxGeometry>
                </mxCell>
                <mxCell id="66" value="alt" style="shape=umlFrame;whiteSpace=wrap;html=1;pointerEvents=0;" parent="1" vertex="1">
                    <mxGeometry x="360" y="1360" width="1180" height="60" as="geometry"/>
                </mxCell>
                <mxCell id="67" value="アカウントを登録できなかったらBP003にリダイレクトする" style="text;html=1;align=center;verticalAlign=middle;resizable=0;points=[];autosize=1;strokeColor=none;fillColor=none;" parent="1" vertex="1">
                    <mxGeometry x="425" y="1380" width="350" height="30" as="geometry"/>
                </mxCell>
>>>>>>> 0894ed2775b1d53241c220fcd7a25aa28018077a
            </root>
        </mxGraphModel>
    </diagram>
</mxfile>